<svg enable-background="new 0 0 2000 2000" viewBox="0 0 2000 2000" xmlns="http://www.w3.org/2000/svg"><circle cx="998.42" cy="1005.67" fill="#fff" r="914.56"/><path d="m1290.2 248.68c-31.43 0-56.9 25.47-56.9 56.9s25.48 56.9 56.9 56.9 56.9-25.48 56.9-56.9-25.47-56.9-56.9-56.9zm0 92.26c-19.53 0-35.36-15.83-35.36-35.36s15.83-35.36 35.36-35.36 35.36 15.83 35.36 35.36-15.83 35.36-35.36 35.36z" fill="#0071bc"/><path d="m1425.72 363.94-19.96 41.71c200.44 132.03 332.76 359.05 332.76 617.01 0 407.79-330.58 738.36-738.36 738.36s-738.36-330.57-738.36-738.36c0-407.78 330.57-738.36 738.36-738.36 45 0 89.07 4.04 131.85 11.75l9.48-45.27c-46.11-8.45-93.61-12.89-142.16-12.89-432.96 0-783.94 350.98-783.94 783.94s350.98 783.94 783.94 783.94 783.94-350.98 783.94-783.94c0-275.7-142.35-518.13-357.55-657.89z" fill="#333"/><path d="m1084.82 171.87 12.63 98.09-44.95 88.24 176.49-65.42z" fill="#333"/><path d="m1421.8 506.69 31.16-93.86 78.77-60-187.41-17.6z" fill="#333"/><path d="m1474.17 909.68h-48.89c-99.61 0-180.65-81.04-180.65-180.65v-354.4h76.24v354.4c0 57.57 46.84 104.42 104.41 104.42h48.89z" fill="#333"/><path d="m1282.74 604.18h191.42v76.24h-191.42z" fill="#333"/><path d="m1062.47 915.62c-106.62 0-193.36-86.74-193.36-193.36s86.74-193.36 193.36-193.36c46.19 0 94.62 20.25 132.87 55.55l29.19 26.95-215.59 215.02c16.05 8.28 34.25 12.96 53.52 12.96 23.65 0 46.42-7 65.87-20.26 11.65-7.95 19.68-16.53 35.8-38.29l61.26 45.38c-18.44 24.9-32.53 41.19-54.11 55.9-32.15 21.92-69.78 33.51-108.81 33.51zm0-310.48c-64.58 0-117.12 52.54-117.12 117.12 0 17.54 3.87 34.18 10.81 49.13l154.32-153.91c-15.91-7.96-32.54-12.34-48.01-12.34z" fill="#333"/><path d="m770.42 619.37c.01.56.04 171.83.04 171.83 0 57.44-46.73 104.17-104.17 104.17h-53.05v77.29h52.09c100.22 0 181.47-81.25 181.47-181.46 0 0-.04-171.27-.04-171.83z" fill="#333"/><path d="m654.32 743.34c-64.06-.02-116.17-52.14-116.17-116.2 0-64.08 52.13-116.21 116.21-116.21 63.24 0 114.81 50.79 116.14 113.72h76.24c-1.34-105.13-86.93-189.96-192.38-189.96-106.29 0-192.44 86.16-192.44 192.44s86.14 192.43 192.41 192.44v-76.23z" fill="#333"/><path d="m653.5 743.34h142.4v76.24h-142.4z" fill="#333"/><g fill="#fd7127"><path d="m371.74 1251.66v-113.81c0-37.83 30.67-68.5 68.5-68.5s68.5 30.67 68.5 68.5v113.81h43.09v-113.81c0-61.53-50.06-111.59-111.6-111.59s-111.6 50.06-111.6 111.59v113.81z"/><path d="m1634.94 1026.26v113.81c0 37.83-30.67 68.5-68.51 68.5-37.83 0-68.5-30.67-68.5-68.5h-43.09c0 61.53 50.06 111.59 111.6 111.59s111.6-50.06 111.6-111.59v-113.81z"/><path d="m1668.91 1071.55h-102.48c-37.83 0-68.5 30.67-68.5 68.51 0 37.83 30.67 68.5 68.5 68.5v43.09c-61.53 0-111.6-50.06-111.6-111.59 0-61.54 50.06-111.6 111.6-111.6h102.48z"/><path d="m1034.97 1251.66v-22.65c0-37.83 30.67-68.5 68.5-68.5 37.84 0 68.51 30.67 68.51 68.5v22.65h43.09v-22.65c0-61.53-50.06-111.59-111.6-111.59-61.53 0-111.59 50.06-111.59 111.59v22.65z"/><path d="m1103.47 1117.41c37.84 0 68.51-30.67 68.51-68.5v-22.65h43.09v22.65c0 61.53-50.06 111.59-111.6 111.59-22.66 0-37.83-43.09 0-43.09z"/><path d="m328.65 935.1h43.09v316.56h-43.09z"/><path d="m991.88 935.1h43.09v316.56h-43.09z"/><path d="m1634.94 935.1h43.09v211.04h-43.09z"/><path d="m1235.9 1116.78h217.76v43.09h-217.76z" transform="matrix(.7194 -.6946 .6946 .7194 -413.3239 1253.5996)"/><path d="m1406.59 1169.63c-11.27 23.04-34.87 38.94-62.24 38.94-38.3 0-69.34-31.04-69.34-69.33s31.04-69.33 69.34-69.33c25.12 0 47.12 13.35 59.29 33.36 1.05 1.73 2.93 5.35 2.93 5.35s28.51-27.53 31.89-30.82c-20.09-30.68-54.78-50.99-94.11-50.99-61.99 0-112.43 50.43-112.43 112.43 0 61.99 50.43 112.42 112.43 112.42 38.3 0 72.17-19.27 92.48-48.6z"/></g><path d="m738.5 1410.52v44.75c42.12.78 76.03 35.14 76.03 77.45 0 42.79-34.69 77.48-77.48 77.48s-77.48-34.69-77.48-77.48h-44.75c0 67.5 54.73 122.23 122.23 122.23s122.23-54.73 122.23-122.23c.01-67.02-53.94-121.42-120.78-122.2z" fill="#0071bc"/><path d="m1123.03 1532.72c0-33.74-13.69-64.28-35.8-86.39l.01-.01c-.46-.46-.94-.88-1.4-1.33-.91-.88-1.81-1.76-2.75-2.61-.71-.64-1.43-1.25-2.14-1.88-.77-.67-1.55-1.35-2.34-2.01-.85-.7-1.72-1.38-2.58-2.05-.68-.53-1.36-1.07-2.05-1.59-.96-.72-1.93-1.41-2.9-2.09-.63-.44-1.26-.89-1.9-1.32-1.03-.7-2.07-1.37-3.11-2.03-.63-.39-1.25-.79-1.88-1.17-1.05-.64-2.11-1.26-3.17-1.86-.67-.38-1.34-.76-2.02-1.13-1.02-.56-2.06-1.09-3.1-1.62-.76-.38-1.52-.76-2.29-1.13-.97-.46-1.94-.91-2.92-1.35-.87-.39-1.75-.77-2.63-1.15-.89-.37-1.78-.73-2.67-1.08-1-.39-2-.77-3.01-1.13-.8-.29-1.61-.57-2.41-.84-1.11-.38-2.22-.73-3.35-1.08-.73-.22-1.47-.44-2.2-.65-1.19-.34-2.39-.67-3.6-.97-.7-.18-1.4-.34-2.1-.5-1.23-.29-2.46-.56-3.71-.81-.71-.14-1.42-.28-2.14-.4-1.22-.22-2.45-.44-3.68-.62-.77-.12-1.55-.22-2.32-.32-1.17-.16-2.34-.3-3.52-.42-.88-.09-1.75-.16-2.63-.23-1.09-.09-2.18-.18-3.27-.24-.98-.05-1.96-.08-2.95-.11-.76-.02-1.51-.07-2.28-.08v.03c-31.76-.37-63.64 11.53-87.87 35.77-23.86 23.86-35.79 55.13-35.8 86.4h-.01c0 3.72.19 7.39.52 11.03.03.26.03.52.06.79.16 1.63.36 3.23.58 4.84.05.36.09.72.14 1.08.22 1.55.5 3.08.78 4.61.08.43.15.86.23 1.29.28 1.46.61 2.9.95 4.33.12.51.23 1.02.35 1.53.33 1.33.7 2.65 1.07 3.97.17.63.34 1.25.53 1.88.35 1.17.74 2.33 1.13 3.49.26.77.51 1.54.78 2.31.35.99.73 1.96 1.11 2.94.36.93.71 1.86 1.1 2.78.33.79.68 1.58 1.03 2.36.47 1.08.95 2.16 1.46 3.23.29.62.6 1.22.9 1.83.6 1.21 1.21 2.42 1.85 3.61.24.45.5.89.75 1.34.73 1.31 1.47 2.62 2.25 3.92.19.32.4.63.6.95.85 1.38 1.72 2.75 2.63 4.1.15.23.31.45.47.67.97 1.41 1.95 2.81 2.98 4.19.1.14.21.28.32.42 3.4 4.51 7.14 8.86 11.25 12.97 11.44 11.44 24.59 20.11 38.62 26.06.1.04.2.09.3.13 1.64.69 3.3 1.34 4.97 1.96.22.08.44.17.67.26 1.58.58 3.18 1.11 4.78 1.62.32.1.63.21.95.31 1.57.48 3.15.92 4.73 1.34.36.09.71.2 1.07.29 1.66.42 3.33.8 5 1.16.28.06.55.13.83.18 10.1 2.06 20.4 2.82 30.66 2.3.23-.01.46-.03.69-.05 1.75-.1 3.5-.22 5.24-.4.53-.05 1.05-.12 1.58-.18 1.43-.16 2.85-.33 4.27-.54.71-.11 1.42-.23 2.12-.34 1.23-.21 2.47-.42 3.7-.66.8-.16 1.59-.33 2.39-.51 1.13-.25 2.27-.5 3.4-.78.83-.21 1.64-.42 2.46-.65 1.1-.3 2.2-.61 3.3-.94.79-.24 1.58-.49 2.37-.74 1.12-.36 2.24-.74 3.36-1.14.72-.25 1.44-.52 2.16-.79 1.17-.44 2.34-.9 3.5-1.38.64-.26 1.26-.53 1.89-.8 1.22-.53 2.43-1.07 3.63-1.64.56-.26 1.1-.53 1.65-.8 1.25-.61 2.49-1.25 3.73-1.91.49-.26.97-.53 1.46-.8 1.25-.69 2.49-1.4 3.72-2.14.47-.28.94-.57 1.4-.85 1.2-.74 2.39-1.5 3.58-2.29.49-.33.97-.66 1.46-1 1.12-.77 2.23-1.55 3.33-2.36.55-.41 1.09-.82 1.63-1.24 1-.77 2-1.54 2.98-2.34.64-.52 1.26-1.05 1.89-1.58.86-.74 1.73-1.47 2.58-2.23.72-.65 1.43-1.32 2.13-1.98.55-.52 1.12-1.02 1.67-1.55l-.02-.02c22.71-22.2 36.84-53.16 36.84-87.44zm-177.01-54.76c16.95-16.95 39.79-24.39 61.93-22.35.18.02.37.04.55.05 2.31.23 4.61.56 6.89 1 .15.03.3.06.44.09 2.29.45 4.56 1 6.81 1.66.16.05.32.1.48.15 2.2.66 4.38 1.42 6.52 2.28.22.09.44.18.66.27 2.07.85 4.11 1.8 6.11 2.84.28.14.56.29.84.44 1.95 1.03 3.85 2.17 5.72 3.38.28.19.57.37.84.55 1.88 1.26 3.71 2.6 5.5 4.04.21.17.43.34.64.51 1.86 1.54 3.67 3.17 5.42 4.9 14.13 14.03 22.9 33.46 22.9 54.95 0 22.16-9.32 42.14-24.24 56.26-1.57 1.49-3.19 2.9-4.85 4.23-.37.3-.75.6-1.13.89-1.62 1.25-3.28 2.43-4.98 3.53-.44.3-.89.58-1.35.86-1.69 1.06-3.41 2.03-5.16 2.95-.47.25-.94.49-1.42.73-1.79.88-3.6 1.7-5.44 2.43-.45.19-.91.37-1.37.54-1.89.72-3.79 1.35-5.71 1.92-.45.13-.9.26-1.35.38-1.94.53-3.89.98-5.86 1.36-.49.09-.97.18-1.46.26-1.94.34-3.89.6-5.84.78-.56.05-1.12.09-1.68.13-1.93.14-3.85.23-5.78.22-.57 0-1.12-.03-1.69-.04-1.81-.04-3.61-.14-5.41-.3-.54-.05-1.09-.11-1.63-.17-1.86-.21-3.71-.5-5.56-.84-.41-.08-.83-.14-1.24-.22-1.97-.4-3.93-.91-5.87-1.47-.46-.13-.93-.25-1.38-.39-1.87-.58-3.71-1.25-5.54-1.97-.52-.21-1.04-.4-1.55-.62-1.75-.73-3.47-1.56-5.18-2.43-.55-.28-1.1-.55-1.64-.84-1.67-.91-3.31-1.89-4.93-2.93-.5-.32-1.01-.63-1.51-.97-1.67-1.13-3.3-2.34-4.9-3.61-.38-.3-.76-.58-1.13-.89-1.73-1.43-3.41-2.95-5.04-4.56-.27-.27-.54-.53-.81-.8-1.66-1.69-3.24-3.42-4.71-5.21-.24-.29-.47-.6-.71-.9-1.37-1.71-2.66-3.46-3.87-5.26-.24-.36-.47-.73-.71-1.1-1.16-1.79-2.25-3.62-3.24-5.49-.19-.34-.36-.69-.54-1.04-1-1.94-1.93-3.92-2.75-5.93-.11-.26-.2-.52-.31-.78-.85-2.12-1.61-4.27-2.26-6.45-.04-.15-.08-.3-.13-.45-.66-2.29-1.24-4.6-1.69-6.93-.01-.05-.02-.1-.03-.16-4.65-24.39 2.44-50.59 21.33-69.48z" fill="#0071bc"/><path d="m738.5 1289.09c-45.88 0-83.08 37.19-83.08 83.07h44.62c0-21.24 17.22-38.46 38.46-38.46s38.46 17.22 38.46 38.46-17.22 38.46-38.46 38.46v44.62c45.88 0 83.08-37.19 83.08-83.08 0-45.88-37.2-83.07-83.08-83.07z" fill="#0071bc"/><path d="m999.71 1293.92-100.23 170.67 38.47 22.59 113.49-193.26z" fill="#0071bc"/><path d="m1271.12 1333.11c42.97 0 77.92 34.96 77.92 77.92v122.91c0 42.97-34.96 77.92-77.92 77.92s-77.92-34.96-77.92-77.92v-122.91c-.01-42.97 34.95-77.92 77.92-77.92m0-43.1c-66.84 0-121.01 54.18-121.01 121.01v122.91c0 66.84 54.18 121.01 121.01 121.01 66.84 0 121.01-54.18 121.01-121.01v-122.91c0-66.83-54.18-121.01-121.01-121.01z" fill="#0071bc"/><path d="m865.91 1069.9c38.29 0 69.33 31.04 69.33 69.33s-31.04 69.33-69.33 69.33-69.33-31.04-69.33-69.33 31.04-69.33 69.33-69.33m0-43.09c-61.99 0-112.42 50.43-112.42 112.43 0 61.99 50.43 112.42 112.42 112.42s112.43-50.43 112.43-112.42c0-62-50.43-112.43-112.43-112.43z" fill="#fd7127"/><path d="m678.08 1069.9c38.29 0 69.33 31.04 69.33 69.33s-31.04 69.33-69.33 69.33-69.33-31.04-69.33-69.33 31.04-69.33 69.33-69.33m0-43.09c-61.99 0-112.43 50.43-112.43 112.43 0 61.99 50.43 112.42 112.43 112.42 61.99 0 112.43-50.43 112.43-112.42 0-62-50.44-112.43-112.43-112.43z" fill="#fd7127"/></svg>