<svg xmlns="http://www.w3.org/2000/svg" version="1.1" xmlns:xlink="http://www.w3.org/1999/xlink" xmlns:svgjs="http://svgjs.dev/svgjs" width="128" height="128" viewBox="0 0 128 128"><g transform="matrix(0.8046875,0,0,0.8046875,12.333870967741937,12.333870967741937)"><svg viewBox="0 0 155 155" data-background-color="#000000" preserveAspectRatio="xMidYMid meet" height="128" width="128" xmlns="http://www.w3.org/2000/svg" xmlns:xlink="http://www.w3.org/1999/xlink"><g id="tight-bounds" transform="matrix(1,0,0,1,0.25,0.25)"><svg viewBox="0 0 154.5 154.5" height="154.5" width="154.5"><g><svg></svg></g><g><svg viewBox="0 0 154.5 154.5" height="154.5" width="154.5"><g transform="matrix(1,0,0,1,50.70020900353357,47.746371)"><svg viewBox="0 0 53.099581992932855 59.00725799999999" height="59.00725799999999" width="53.099581992932855"><g><svg viewBox="0 0 53.099581992932855 59.00725799999999" height="59.00725799999999" width="53.099581992932855"><g><svg viewBox="0 0 53.099581992932855 59.00725799999999" height="59.00725799999999" width="53.099581992932855"><g id="textblocktransform"><svg viewBox="0 0 53.099581992932855 59.00725799999999" height="59.00725799999999" width="53.099581992932855" id="textblock"><g><svg viewBox="0 0 53.099581992932855 59.00725799999999" height="59.00725799999999" width="53.099581992932855"><g transform="matrix(1,0,0,1,0,0)"><svg width="53.099581992932855" viewBox="1.0499999999999998 -36.5 38.2 42.45" height="59.00725799999999" data-palette-color="url(#45228bb8-653f-4da1-8c55-bd7215d5d5ef)"></svg></g></svg></g></svg></g></svg></g></svg></g></svg></g></svg></g><defs></defs><mask id="fb3e4af3-4aa6-4d69-aeb3-80e7eef8f0ac"><g id="SvgjsG1397"><svg viewBox="0 0 154.5 154.5" height="154.5" width="154.5"><g><svg></svg></g><g><svg viewBox="0 0 154.5 154.5" height="154.5" width="154.5"><g transform="matrix(1,0,0,1,50.70020900353357,47.746371)"><svg viewBox="0 0 53.099581992932855 59.00725799999999" height="59.00725799999999" width="53.099581992932855"><g><svg viewBox="0 0 53.099581992932855 59.00725799999999" height="59.00725799999999" width="53.099581992932855"><g><svg viewBox="0 0 53.099581992932855 59.00725799999999" height="59.00725799999999" width="53.099581992932855"><g id="SvgjsG1396"><svg viewBox="0 0 53.099581992932855 59.00725799999999" height="59.00725799999999" width="53.099581992932855" id="SvgjsSvg1395"><g><svg viewBox="0 0 53.099581992932855 59.00725799999999" height="59.00725799999999" width="53.099581992932855"><g transform="matrix(1,0,0,1,0,0)"><svg width="53.099581992932855" viewBox="1.0499999999999998 -36.5 38.2 42.45" height="59.00725799999999" data-palette-color="url(#45228bb8-653f-4da1-8c55-bd7215d5d5ef)"><path d="M21 5.95L21 5.95 12.9 5.95Q11.65 5.95 11.13 5.4 10.6 4.85 10.6 3.65L10.6 3.65 10.6-2.6 3.05-12.7Q1.85-14.3 1.45-15.5 1.05-16.7 1.05-19.15L1.05-19.15 1.05-28.75Q1.05-29.4 1.23-29.85 1.4-30.3 1.75-30.6L1.75-30.6 8.2-36.05Q8.45-36.25 8.88-36.38 9.3-36.5 9.8-36.5L9.8-36.5 17.5-36.5Q18.7-36.5 19.25-35.95 19.8-35.4 19.8-34.2L19.8-34.2 19.8-26Q19.8-25.55 19.85-25.1 19.9-24.65 20.15-24.15L20.15-24.15 20.75-23.3 20.75-28.75Q20.75-29.4 20.93-29.85 21.1-30.3 21.45-30.6L21.45-30.6 27.9-36.05Q28.15-36.25 28.58-36.38 29-36.5 29.5-36.5L29.5-36.5 36.95-36.5Q38.15-36.5 38.7-35.95 39.25-35.4 39.25-34.2L39.25-34.2 39.25-24.6Q39.25-22.15 38.85-20.95 38.45-19.75 37.25-18.15L37.25-18.15 29.75-8 29.75-1.8Q29.75-1.15 29.58-0.7 29.4-0.25 29.05 0.05L29.05 0.05 22.55 5.45Q22.35 5.65 21.93 5.8 21.5 5.95 21 5.95ZM19.35 0L27.45 0Q28.4 0 28.83-0.43 29.25-0.85 29.25-1.8L29.25-1.8 29.25-8.15 36.85-18.45Q37.95-20 38.35-21.15 38.75-22.3 38.75-24.6L38.75-24.6 38.75-34.2Q38.75-35.15 38.33-35.58 37.9-36 36.95-36L36.95-36 29.5-36Q28.55-36 28.13-35.58 27.7-35.15 27.7-34.2L27.7-34.2 27.7-26Q27.7-25.5 27.65-24.95 27.6-24.4 27.25-23.9L27.25-23.9 24.95-20.3Q24.7-19.85 24.43-19.65 24.15-19.45 23.75-19.45L23.75-19.45 23.25-19.45Q22.85-19.45 22.58-19.65 22.3-19.85 22.05-20.3L22.05-20.3 19.75-23.9Q19.4-24.4 19.35-24.95 19.3-25.5 19.3-26L19.3-26 19.3-34.2Q19.3-35.15 18.88-35.58 18.45-36 17.5-36L17.5-36 9.8-36Q8.85-36 8.43-35.58 8-35.15 8-34.2L8-34.2 8-24.6Q8-22.3 8.38-21.15 8.75-20 9.9-18.45L9.9-18.45 17.55-8.2 17.55-1.8Q17.55-0.85 17.98-0.43 18.4 0 19.35 0L19.35 0ZM24-13.05L24-13.05 23.65-13.05 23.65-4.5 23.15-4.5 23.15-13.05 22.65-13.05Q21.55-13.05 20.68-13.55 19.8-14.05 19-15.15L19-15.15 14.15-21.9Q13.6-22.65 13.5-23.65 13.4-24.65 13.4-25.75L13.4-25.75 13.4-31.5 13.9-31.5 13.9-25.75Q13.9-24.7 14-23.78 14.1-22.85 14.6-22.1L14.6-22.1 19.45-15.35Q20.1-14.35 20.95-13.95 21.8-13.55 22.65-13.55L22.65-13.55 24-13.55Q24.95-13.55 25.73-13.98 26.5-14.4 27.25-15.35L27.25-15.35 32.25-22.1Q32.75-22.75 32.85-23.73 32.95-24.7 32.95-25.75L32.95-25.75 32.95-31.5 33.45-31.5 33.45-25.75Q33.45-24.65 33.38-23.68 33.3-22.7 32.7-21.9L32.7-21.9 27.7-15.15Q26.9-14.05 26.03-13.55 25.15-13.05 24-13.05Z" opacity="1" transform="matrix(1,0,0,1,0,0)" fill="white" class="wordmark-text-0" id="SvgjsPath1394"></path></svg></g></svg></g></svg></g></svg></g></svg></g></svg></g><path d="M50.7 41.746L50.7 1 103.8 1 103.8 41.746 98.478 41.746 98.478 6.321 56.022 6.321 56.022 41.746 50.7 41.746M50.7 112.754L50.7 153.5 103.8 153.5 103.8 112.754 98.478 112.754 98.478 148.179 56.022 148.179 56.022 112.754 50.7 112.754" fill="white" stroke="transparent"></path></svg></g><defs><mask></mask></defs></svg><rect width="154.5" height="154.5" fill="black" stroke="none" visibility="hidden"></rect></g></mask><linearGradient x1="0" x2="1" y1="0.548" y2="0.55" id="45228bb8-653f-4da1-8c55-bd7215d5d5ef"><stop stop-color="#ff6cab" offset="0"></stop><stop stop-color="#7366ff" offset="1"></stop></linearGradient><rect width="154.5" height="154.5" fill="url(#45228bb8-653f-4da1-8c55-bd7215d5d5ef)" mask="url(#fb3e4af3-4aa6-4d69-aeb3-80e7eef8f0ac)" data-fill-palette-color="primary"></rect></svg><rect width="154.5" height="154.5" fill="none" stroke="none" visibility="hidden"></rect></g></svg></g></svg>