<svg xmlns="http://www.w3.org/2000/svg" version="1.1" xmlns:xlink="http://www.w3.org/1999/xlink" xmlns:svgjs="http://svgjs.dev/svgjs" width="2000" height="1247" viewBox="0 0 2000 1247"><g transform="matrix(1,0,0,1,-1.2121212121212466,0.504858299595071)"><svg viewBox="0 0 396 247" data-background-color="#000000" preserveAspectRatio="xMidYMid meet" height="1247" width="2000" xmlns="http://www.w3.org/2000/svg" xmlns:xlink="http://www.w3.org/1999/xlink"><g id="tight-bounds" transform="matrix(1,0,0,1,0.2400000000000091,-0.09999999999999432)"><svg viewBox="0 0 395.52 247.2" height="247.2" width="395.52"><g><svg></svg></g><g><svg viewBox="0 0 395.52 247.2" height="247.2" width="395.52"><g transform="matrix(1,0,0,1,75.54432,97.16837358698372)"><svg viewBox="0 0 244.43135999999998 52.86325282603254" height="52.86325282603254" width="244.43135999999998"><g><svg viewBox="0 0 244.43135999999998 52.86325282603254" height="52.86325282603254" width="244.43135999999998"><g><svg viewBox="0 0 244.43135999999998 52.86325282603254" height="52.86325282603254" width="244.43135999999998"><g><svg viewBox="0 0 244.43135999999998 52.86325282603254" height="52.86325282603254" width="244.43135999999998"><g id="textblocktransform"><svg viewBox="0 0 244.43135999999998 52.86325282603254" height="52.86325282603254" width="244.43135999999998" id="textblock"><g><svg viewBox="0 0 244.43135999999998 52.86325282603254" height="52.86325282603254" width="244.43135999999998"><g transform="matrix(1,0,0,1,0,0)"><svg width="244.43135999999998" viewBox="1.0499999999999998 -36.5 199.73999999999998 43.2" height="52.86325282603254" data-palette-color="url(#a7a3949c-1f33-40b0-a1a3-4ccbdae6103f)"></svg></g></svg></g></svg></g></svg></g></svg></g></svg></g></svg></g></svg></g><defs></defs><mask id="fe3cac2e-7df5-4fa2-9bd4-b6a5c24cf7ea"><g id="SvgjsG2268"><svg viewBox="0 0 395.52 247.2" height="247.2" width="395.52"><g><svg></svg></g><g><svg viewBox="0 0 395.52 247.2" height="247.2" width="395.52"><g transform="matrix(1,0,0,1,75.54432,97.16837358698372)"><svg viewBox="0 0 244.43135999999998 52.86325282603254" height="52.86325282603254" width="244.43135999999998"><g><svg viewBox="0 0 244.43135999999998 52.86325282603254" height="52.86325282603254" width="244.43135999999998"><g><svg viewBox="0 0 244.43135999999998 52.86325282603254" height="52.86325282603254" width="244.43135999999998"><g><svg viewBox="0 0 244.43135999999998 52.86325282603254" height="52.86325282603254" width="244.43135999999998"><g id="SvgjsG2267"><svg viewBox="0 0 244.43135999999998 52.86325282603254" height="52.86325282603254" width="244.43135999999998" id="SvgjsSvg2266"><g><svg viewBox="0 0 244.43135999999998 52.86325282603254" height="52.86325282603254" width="244.43135999999998"><g transform="matrix(1,0,0,1,0,0)"><svg width="244.43135999999998" viewBox="1.0499999999999998 -36.5 199.73999999999998 43.2" height="52.86325282603254" data-palette-color="url(#a7a3949c-1f33-40b0-a1a3-4ccbdae6103f)"><path d="M21 5.95L21 5.95 12.9 5.95Q11.65 5.95 11.13 5.4 10.6 4.85 10.6 3.65L10.6 3.65 10.6-2.6 3.05-12.7Q1.85-14.3 1.45-15.5 1.05-16.7 1.05-19.15L1.05-19.15 1.05-28.75Q1.05-29.4 1.23-29.85 1.4-30.3 1.75-30.6L1.75-30.6 8.2-36.05Q8.45-36.25 8.88-36.38 9.3-36.5 9.8-36.5L9.8-36.5 17.5-36.5Q18.7-36.5 19.25-35.95 19.8-35.4 19.8-34.2L19.8-34.2 19.8-26Q19.8-25.55 19.85-25.1 19.9-24.65 20.15-24.15L20.15-24.15 20.75-23.3 20.75-28.75Q20.75-29.4 20.93-29.85 21.1-30.3 21.45-30.6L21.45-30.6 27.9-36.05Q28.15-36.25 28.58-36.38 29-36.5 29.5-36.5L29.5-36.5 36.95-36.5Q38.15-36.5 38.7-35.95 39.25-35.4 39.25-34.2L39.25-34.2 39.25-24.6Q39.25-22.15 38.85-20.95 38.45-19.75 37.25-18.15L37.25-18.15 29.75-8 29.75-1.8Q29.75-1.15 29.58-0.7 29.4-0.25 29.05 0.05L29.05 0.05 22.55 5.45Q22.35 5.65 21.93 5.8 21.5 5.95 21 5.95ZM19.35 0L27.45 0Q28.4 0 28.83-0.43 29.25-0.85 29.25-1.8L29.25-1.8 29.25-8.15 36.85-18.45Q37.95-20 38.35-21.15 38.75-22.3 38.75-24.6L38.75-24.6 38.75-34.2Q38.75-35.15 38.33-35.58 37.9-36 36.95-36L36.95-36 29.5-36Q28.55-36 28.13-35.58 27.7-35.15 27.7-34.2L27.7-34.2 27.7-26Q27.7-25.5 27.65-24.95 27.6-24.4 27.25-23.9L27.25-23.9 24.95-20.3Q24.7-19.85 24.43-19.65 24.15-19.45 23.75-19.45L23.75-19.45 23.25-19.45Q22.85-19.45 22.58-19.65 22.3-19.85 22.05-20.3L22.05-20.3 19.75-23.9Q19.4-24.4 19.35-24.95 19.3-25.5 19.3-26L19.3-26 19.3-34.2Q19.3-35.15 18.88-35.58 18.45-36 17.5-36L17.5-36 9.8-36Q8.85-36 8.43-35.58 8-35.15 8-34.2L8-34.2 8-24.6Q8-22.3 8.38-21.15 8.75-20 9.9-18.45L9.9-18.45 17.55-8.2 17.55-1.8Q17.55-0.85 17.98-0.43 18.4 0 19.35 0L19.35 0ZM24-13.05L24-13.05 23.65-13.05 23.65-4.5 23.15-4.5 23.15-13.05 22.65-13.05Q21.55-13.05 20.68-13.55 19.8-14.05 19-15.15L19-15.15 14.15-21.9Q13.6-22.65 13.5-23.65 13.4-24.65 13.4-25.75L13.4-25.75 13.4-31.5 13.9-31.5 13.9-25.75Q13.9-24.7 14-23.78 14.1-22.85 14.6-22.1L14.6-22.1 19.45-15.35Q20.1-14.35 20.95-13.95 21.8-13.55 22.65-13.55L22.65-13.55 24-13.55Q24.95-13.55 25.73-13.98 26.5-14.4 27.25-15.35L27.25-15.35 32.25-22.1Q32.75-22.75 32.85-23.73 32.95-24.7 32.95-25.75L32.95-25.75 32.95-31.5 33.45-31.5 33.45-25.75Q33.45-24.65 33.38-23.68 33.3-22.7 32.7-21.9L32.7-21.9 27.7-15.15Q26.9-14.05 26.03-13.55 25.15-13.05 24-13.05ZM58.2 6.7L58.2 6.7Q53.35 6.7 50.22 5.68 47.1 4.65 45.35 2.95 43.6 1.25 42.92-0.95 42.25-3.15 42.25-5.5L42.25-5.5 42.25-28.75Q42.25-29.4 42.42-29.85 42.6-30.3 42.95-30.6L42.95-30.6 49.4-36.05Q49.65-36.25 50.07-36.38 50.5-36.5 51-36.5L51-36.5 58.85-36.5Q60.05-36.5 60.6-35.95 61.15-35.4 61.15-34.2L61.15-34.2 61.15-11.4Q61.15-10.95 61.3-10.58 61.45-10.2 61.95-10L61.95-10 61.95-28.75Q61.95-29.4 62.1-29.85 62.25-30.3 62.55-30.55L62.55-30.55 62.6-30.6 69.1-36.05Q69.35-36.25 69.75-36.38 70.15-36.5 70.7-36.5L70.7-36.5 78.3-36.5Q79.5-36.5 80.05-35.95 80.6-35.4 80.6-34.2L80.6-34.2 80.6-9.45Q80.6-7.15 79.95-5.2 79.3-3.25 77.6-1.85L77.6-1.85 71.1 3.55Q69.35 5.05 66.25 5.88 63.15 6.7 58.2 6.7ZM80.1-9.45L80.1-9.45 80.1-34.2Q80.1-35.15 79.67-35.58 79.25-36 78.3-36L78.3-36 70.7-36Q69.75-36 69.32-35.58 68.9-35.15 68.9-34.2L68.9-34.2 68.9-11.4Q68.9-10.4 68.15-9.73 67.4-9.05 64.75-9.05L64.75-9.05Q62.15-9.05 61.4-9.73 60.65-10.4 60.65-11.4L60.65-11.4 60.65-34.2Q60.65-35.15 60.22-35.58 59.8-36 58.85-36L58.85-36 51-36Q50.05-36 49.62-35.58 49.2-35.15 49.2-34.2L49.2-34.2 49.2-9.45Q49.2-7.15 49.87-5.28 50.55-3.4 52.27-2.08 54-0.75 57 0 60 0.75 64.65 0.75L64.65 0.75Q69.3 0.75 72.3 0 75.3-0.75 77.02-2.08 78.75-3.4 79.42-5.28 80.1-7.15 80.1-9.45ZM54.7-10.65L54.7-31.5 55.2-31.5 55.2-10.65Q55.2-7.85 57.17-6.13 59.15-4.4 64.7-4.4L64.7-4.4Q70.25-4.4 72.25-6.13 74.25-7.85 74.25-10.65L74.25-10.65 74.25-31.5 74.75-31.5 74.75-10.65Q74.75-7.65 72.65-5.78 70.55-3.9 64.7-3.9L64.7-3.9Q58.85-3.9 56.77-5.78 54.7-7.65 54.7-10.65L54.7-10.65ZM100.5 6.7L100.5 6.7Q95.65 6.7 92.52 5.68 89.4 4.65 87.65 2.95 85.9 1.25 85.22-0.95 84.55-3.15 84.55-5.5L84.55-5.5 84.55-28.75Q84.55-29.4 84.72-29.85 84.9-30.3 85.25-30.6L85.25-30.6 91.7-36.05Q91.95-36.25 92.37-36.38 92.8-36.5 93.3-36.5L93.3-36.5 101.15-36.5Q102.35-36.5 102.9-35.95 103.45-35.4 103.45-34.2L103.45-34.2 103.45-11.4Q103.45-10.95 103.6-10.58 103.75-10.2 104.25-10L104.25-10 104.25-28.75Q104.25-29.4 104.4-29.85 104.55-30.3 104.85-30.55L104.85-30.55 104.9-30.6 111.4-36.05Q111.65-36.25 112.05-36.38 112.45-36.5 113-36.5L113-36.5 120.6-36.5Q121.8-36.5 122.35-35.95 122.9-35.4 122.9-34.2L122.9-34.2 122.9-9.45Q122.9-7.15 122.25-5.2 121.6-3.25 119.9-1.85L119.9-1.85 113.4 3.55Q111.65 5.05 108.55 5.88 105.45 6.7 100.5 6.7ZM122.4-9.45L122.4-9.45 122.4-34.2Q122.4-35.15 121.97-35.58 121.55-36 120.6-36L120.6-36 113-36Q112.05-36 111.62-35.58 111.2-35.15 111.2-34.2L111.2-34.2 111.2-11.4Q111.2-10.4 110.45-9.73 109.7-9.05 107.05-9.05L107.05-9.05Q104.45-9.05 103.7-9.73 102.95-10.4 102.95-11.4L102.95-11.4 102.95-34.2Q102.95-35.15 102.52-35.58 102.1-36 101.15-36L101.15-36 93.3-36Q92.35-36 91.92-35.58 91.5-35.15 91.5-34.2L91.5-34.2 91.5-9.45Q91.5-7.15 92.17-5.28 92.85-3.4 94.57-2.08 96.3-0.75 99.3 0 102.3 0.75 106.95 0.75L106.95 0.75Q111.6 0.75 114.6 0 117.6-0.75 119.32-2.08 121.05-3.4 121.72-5.28 122.4-7.15 122.4-9.45ZM97-10.65L97-31.5 97.5-31.5 97.5-10.65Q97.5-7.85 99.47-6.13 101.45-4.4 107-4.4L107-4.4Q112.55-4.4 114.55-6.13 116.55-7.85 116.55-10.65L116.55-10.65 116.55-31.5 117.05-31.5 117.05-10.65Q117.05-7.65 114.95-5.78 112.85-3.9 107-3.9L107-3.9Q101.15-3.9 99.07-5.78 97-7.65 97-10.65L97-10.65ZM150.84-31L150.84-31 139.94-31 139.94-16.55 150.84-16.55Q153.94-16.55 154.99-18.05 156.04-19.55 156.04-22.3L156.04-22.3 156.04-25.8Q156.04-28.1 154.77-29.55 153.49-31 150.84-31ZM145.34-20.6L145.34-27 149.09-27Q150.39-27 150.84-26.33 151.29-25.65 151.29-24.65L151.29-24.65 151.29-22.95Q151.29-21.95 150.84-21.28 150.39-20.6 149.09-20.6L149.09-20.6 145.34-20.6ZM139.94-16.1L139.94-4.5 139.44-4.5 139.44-31.5 150.84-31.5Q153.74-31.5 155.14-29.88 156.54-28.25 156.54-25.8L156.54-25.8 156.54-22.35Q156.54-20.05 155.94-18.57 155.34-17.1 153.54-16.55L153.54-16.55 154.09-16.55Q157.14-16.55 158.64-15.18 160.14-13.8 160.14-11.2L160.14-11.2 160.14-4.5 159.64-4.5 159.64-11.2Q159.64-13.65 158.29-14.88 156.94-16.1 154.09-16.1L154.09-16.1 139.94-16.1ZM135.84 0L143.54 0Q144.49 0 144.92-0.43 145.34-0.85 145.34-1.8L145.34-1.8 145.34-11.6 152.34-11.6Q153.39-11.6 153.82-11.08 154.24-10.55 154.24-9.45L154.24-9.45 154.24-1.8Q154.24-0.85 154.67-0.43 155.09 0 156.04 0L156.04 0 163.79 0Q164.74 0 165.17-0.43 165.59-0.85 165.59-1.8L165.59-1.8 165.59-12.4Q165.59-15.55 163.92-17.45 162.24-19.35 159.54-19.65L159.54-19.65Q161.09-20.3 161.72-21.78 162.34-23.25 162.34-25.35L162.34-25.35 162.34-27.65Q162.34-31.35 160.22-33.68 158.09-36 152.49-36L152.49-36 135.84-36Q134.89-36 134.47-35.58 134.04-35.15 134.04-34.2L134.04-34.2 134.04-1.8Q134.04-0.85 134.47-0.43 134.89 0 135.84 0L135.84 0ZM145.14 0.05L145.14 0.05 138.64 5.45Q138.44 5.65 138.02 5.8 137.59 5.95 137.09 5.95L137.09 5.95 129.39 5.95Q128.19 5.95 127.64 5.4 127.09 4.85 127.09 3.65L127.09 3.65 127.09-28.75Q127.09-29.4 127.27-29.85 127.44-30.3 127.79-30.6L127.79-30.6 134.24-36.05Q134.49-36.25 134.92-36.38 135.34-36.5 135.84-36.5L135.84-36.5 152.49-36.5Q158.44-36.5 160.64-34.02 162.84-31.55 162.84-27.65L162.84-27.65 162.84-25.35Q162.84-23.5 162.39-22.13 161.94-20.75 160.94-19.9L160.94-19.9 160.89-19.9Q163.24-19.25 164.67-17.3 166.09-15.35 166.09-12.4L166.09-12.4 166.09-1.8Q166.09-1.15 165.92-0.7 165.74-0.25 165.39 0.05L165.39 0.05 158.89 5.45Q158.69 5.65 158.27 5.8 157.84 5.95 157.34 5.95L157.34 5.95 149.59 5.95Q148.39 5.95 147.84 5.4 147.29 4.85 147.29 3.65L147.29 3.65 147.29-4Q147.29-4.8 146.99-5.23 146.69-5.65 145.89-5.65L145.89-5.65 145.84-5.65 145.84-1.8Q145.84-1.15 145.67-0.7 145.49-0.25 145.14 0.05ZM192.04 5.95L192.04 5.95 170.74 5.95Q169.54 5.95 168.99 5.4 168.44 4.85 168.44 3.65L168.44 3.65 168.44-2.3Q168.44-2.95 168.62-3.4 168.79-3.85 169.14-4.15L169.14-4.15 175.19-9.25 175.19-20.4 170.74-20.4Q169.54-20.4 168.99-20.95 168.44-21.5 168.44-22.7L168.44-22.7 168.44-28.75Q168.44-29.4 168.62-29.85 168.79-30.3 169.14-30.6L169.14-30.6 175.59-36.05Q175.84-36.25 176.27-36.38 176.69-36.5 177.19-36.5L177.19-36.5 198.49-36.5Q199.69-36.5 200.24-35.95 200.79-35.4 200.79-34.2L200.79-34.2 200.79-28.15Q200.79-27.5 200.62-27.05 200.44-26.6 200.09-26.3L200.09-26.3 194.14-21.3 194.14-10.05 198.49-10.05Q199.69-10.05 200.24-9.5 200.79-8.95 200.79-7.75L200.79-7.75 200.79-1.8Q200.79-1.15 200.62-0.7 200.44-0.25 200.09 0.05L200.09 0.05 193.59 5.45Q193.39 5.65 192.97 5.8 192.54 5.95 192.04 5.95ZM177.19 0L177.19 0 198.49 0Q199.44 0 199.87-0.43 200.29-0.85 200.29-1.8L200.29-1.8 200.29-7.75Q200.29-8.7 199.87-9.13 199.44-9.55 198.49-9.55L198.49-9.55 193.64-9.55 193.64-26.35 198.49-26.35Q199.44-26.35 199.87-26.78 200.29-27.2 200.29-28.15L200.29-28.15 200.29-34.2Q200.29-35.15 199.87-35.58 199.44-36 198.49-36L198.49-36 177.19-36Q176.24-36 175.82-35.58 175.39-35.15 175.39-34.2L175.39-34.2 175.39-28.15Q175.39-27.2 175.82-26.78 176.24-26.35 177.19-26.35L177.19-26.35 182.14-26.35 182.14-9.55 177.19-9.55Q176.24-9.55 175.82-9.13 175.39-8.7 175.39-7.75L175.39-7.75 175.39-1.8Q175.39-0.85 175.82-0.43 176.24 0 177.19 0ZM195.79-5L195.79-4.5 179.89-4.5 179.89-5 187.64-5 187.64-31 179.89-31 179.89-31.5 195.79-31.5 195.79-31 188.14-31 188.14-5 195.79-5Z" opacity="1" transform="matrix(1,0,0,1,0,0)" fill="white" class="wordmark-text-0" id="SvgjsPath2265"></path></svg></g></svg></g></svg></g></svg></g></svg></g></svg></g></svg></g><path d="M193.309 91.168L193.309 31.159 8.426 31.159 8.426 216.041 193.309 216.041 193.309 156.032 188.542 156.032 188.542 211.274 13.193 211.274 13.193 35.926 188.542 35.926 188.542 91.168Z" fill="white" stroke="transparent"></path></svg></g><defs><mask></mask></defs></svg><rect width="395.52" height="247.2" fill="black" stroke="none" visibility="hidden"></rect></g></mask><linearGradient x1="0" x2="1" y1="0.548" y2="0.55" id="a7a3949c-1f33-40b0-a1a3-4ccbdae6103f"><stop stop-color="#ff6cab" offset="0"></stop><stop stop-color="#7366ff" offset="1"></stop></linearGradient><rect width="395.52" height="247.2" fill="url(#a7a3949c-1f33-40b0-a1a3-4ccbdae6103f)" mask="url(#fe3cac2e-7df5-4fa2-9bd4-b6a5c24cf7ea)" data-fill-palette-color="primary"></rect></svg><rect width="395.52" height="247.2" fill="none" stroke="none" visibility="hidden"></rect></g></svg></g></svg>